<svg xmlns="http://www.w3.org/2000/svg" viewBox="0 0 48 54">
  <defs>
    <linearGradient id="g1" x1="0" y1="0" x2="1" y2="1">
      <stop offset="0" stop-color="#2563eb"/>
      <stop offset="1" stop-color="#1d4ed8"/>
    </linearGradient>
    <linearGradient id="g2" x1="0" y1="0" x2="1" y2="1">
      <stop offset="0" stop-color="#fff" stop-opacity=".2"/>
      <stop offset="1" stop-color="#fff" stop-opacity="0"/>
    </linearGradient>
  </defs>
  <path fill="url(#g1)" d="M8,0h32c4,0,8,4,8,8v26c0,10-20,18-24,20C20,52,0,44,0,34V8C0,4,4,0,8,0Z"/>
  <path fill="url(#g2)" d="M8,0h32c4,0,8,4,8,8v26c0,10-20,18-24,20C20,52,0,44,0,34V8C0,4,4,0,8,0Z"/>
  <path fill="#fff" opacity=".45" d="M13.25,12h11.5c.69,0,1.25.56,1.25,1.25h0c0,.69-.56,1.25-1.25,1.25h-11.5c-.69,0-1.25-.56-1.25-1.25h0c0-.69.56-1.25,1.25-1.25Z"/>
  <path fill="#fff" opacity=".45" d="M13.25,18h17.5c.69,0,1.25.56,1.25,1.25h0c0,.69-.56,1.25-1.25,1.25H13.25c-.69,0-1.25-.56-1.25-1.25h0c0-.69.56-1.25,1.25-1.25Z"/>
  <path fill="#fff" opacity=".35" d="M13.25,24h7.5c.69,0,1.25.56,1.25,1.25h0c0,.69-.56,1.25-1.25,1.25h-7.5c-.69,0-1.25-.56-1.25-1.25h0c0-.69.56-1.25,1.25-1.25Z"/>
  <circle fill="#fff" cx="35.51" cy="32.76" r="8.76"/>
  <circle fill="#10b981" cx="35.51" cy="32.76" r="7.01"/>
  <polyline fill="none" stroke="#fff" stroke-linecap="round" stroke-linejoin="round" stroke-width="2" points="31.72 32.73 34.01 35.41 39.74 29.68"/>
</svg>
